HIERARCHY
ROOT Hips
{
	OFFSET 0.000000 0.000000 0.000000 
	CHANNELS 6 Xposition Yposition Zposition Zrotation Yrotation Xrotation
	JOINT LeftUpLeg
	{
		OFFSET 1.363060 -1.794630 0.839290 
		CHANNELS 3 Zrotation Yrotation Xrotation
		JOINT LeftLeg
		{
			OFFSET 2.448110 -6.726130 0.000000 
			CHANNELS 3 Zrotation Yrotation Xrotation
			JOINT LeftFoot
			{
				OFFSET 2.562200 -7.039590 0.000000 
				CHANNELS 3 Zrotation Yrotation Xrotation
				JOINT LeftToeBase
				{
					OFFSET 0.157640 -0.433110 2.322550 
					CHANNELS 3 Zrotation Yrotation Xrotation
					End Site
					{
						OFFSET 0.000000 0.000000 0.000000 
					}
				}
			}
		}
	}
	JOINT RightUpLeg
	{
		OFFSET -1.305520 -1.794630 0.839290 
		CHANNELS 3 Zrotation Yrotation Xrotation
		JOINT RightLeg
		{
			OFFSET -2.542530 -6.985550 0.000000 
			CHANNELS 3 Zrotation Yrotation Xrotation
			JOINT RightFoot
			{
				OFFSET -2.568260 -7.056230 0.000000 
				CHANNELS 3 Zrotation Yrotation Xrotation
				JOINT RightToeBase
				{
					OFFSET -0.164730 -0.452590 2.363150 
					CHANNELS 3 Zrotation Yrotation Xrotation
					End Site
					{
						OFFSET 0.000000 0.000000 0.000000 
					}
				}
			}
		}
	}
	JOINT Spine
	{
		OFFSET 0.028270 2.035590 -0.193380 
		CHANNELS 3 Zrotation Yrotation Xrotation
		JOINT Spine1
		{
			OFFSET 0.056720 2.048850 -0.042750 
			CHANNELS 3 Zrotation Yrotation Xrotation
			JOINT Neck1
			{
				OFFSET -0.054170 1.746240 0.172020 
				CHANNELS 3 Zrotation Yrotation Xrotation
				JOINT Head
				{
					OFFSET 0.104070 1.761360 -0.123970 
					CHANNELS 3 Zrotation Yrotation Xrotation
					End Site
					{
						OFFSET 0.000000 0.000000 0.000000 
					}
				}
			}
			JOINT LeftArm
			{
				OFFSET 3.362410 1.200890 -0.311210 
				CHANNELS 3 Zrotation Yrotation Xrotation
				JOINT LeftForeArm
				{
					OFFSET 4.983000 -0.000000 -0.000000 
					CHANNELS 3 Zrotation Yrotation Xrotation
					JOINT LeftHand
					{
						OFFSET 3.483560 -0.000000 -0.000000 
						CHANNELS 3 Zrotation Yrotation Xrotation
						JOINT LeftHandIndex1
						{
							OFFSET 0.715260 -0.000000 -0.000000 
							CHANNELS 3 Zrotation Yrotation Xrotation
							End Site
							{
								OFFSET 0.000000 0.000000 0.000000 
							}
						}
					}
				}
			}
			JOINT RightArm
			{
				OFFSET -3.136600 1.374050 -0.404650 
				CHANNELS 3 Zrotation Yrotation Xrotation
				JOINT RightForeArm
				{
					OFFSET -5.241900 -0.000000 -0.000000 
					CHANNELS 3 Zrotation Yrotation Xrotation
					JOINT RightHand
					{
						OFFSET -3.444170 -0.000000 -0.000000 
						CHANNELS 3 Zrotation Yrotation Xrotation
						JOINT RightHandIndex1
						{
							OFFSET -0.622530 -0.000000 -0.000000 
							CHANNELS 3 Zrotation Yrotation Xrotation
							End Site
							{
								OFFSET 0.000000 0.000000 0.000000 
							}
						}
					}
				}
			}
		}
	}
}
MOTION
Frames: 6
Frame Time: 0.041667
10.653616 17.814981 2.101487 177.062562 1.488540 -157.013641 -11.006738 -26.194741 -67.411082 8.210734 22.957120 59.517959 0.377148 -4.160102 -17.882936 4.106300 -12.300500 -36.803600 32.991794 16.564193 -10.492631 0.553262 -5.291825 14.700996 -1.542972 0.611524 -23.194605 -2.141500 9.154800 -26.280700 0.743062 1.608823 -3.963646 -0.607814 -0.070294 14.146742 10.798551 -5.426570 28.489386 1.916100 -1.896100 6.287700 -104.959467 -1.127089 13.969599 11.554423 -12.962521 -1.653644 -1.255094 1.179606 9.096837 -7.125000 0.000000 0.000000 98.010735 4.248446 23.308221 -19.426538 31.088335 -6.781129 0.262319 3.528835 -6.526466 7.125000 0.000000 0.000000 
10.640952 17.811160 2.005086 177.178253 1.559123 -156.693390 -10.974871 -26.193026 -67.129519 8.104602 22.872047 59.176046 0.291877 -4.441624 -17.503221 3.429500 -11.359800 -33.503100 33.017452 16.384460 -10.615665 0.539358 -5.316476 14.758209 -1.534990 0.864010 -23.116967 -2.160800 9.193200 -26.401500 0.709438 1.711808 -4.029231 -0.645941 -0.025595 14.025542 10.890226 -5.730233 29.160487 2.003100 -2.051200 6.656200 -104.851064 -1.024218 13.924020 11.560930 -12.980060 -1.655934 -1.269400 1.190947 9.118563 -7.125000 0.000000 0.000000 98.083020 3.951352 23.306962 -19.488833 31.182745 -6.824923 0.356742 3.461732 -6.627126 7.125000 0.000000 0.000000 
10.625122 17.809413 1.908467 177.072596 1.724975 -156.501582 -11.409569 -26.195326 -66.549301 7.949006 22.747975 58.690201 0.230109 -4.776042 -17.470202 1.783300 -8.399300 -23.933700 32.849545 15.998748 -10.456549 0.548583 -5.199490 14.537019 -1.514883 0.769250 -22.917859 -2.480500 9.802400 -28.339200 0.645590 1.795857 -4.039143 -0.655050 -0.008528 14.094757 10.960364 -5.878850 29.648042 2.060800 -2.114800 6.950100 -104.735566 -0.760583 14.044109 11.742266 -13.295504 -1.724117 -1.245204 1.075839 8.918915 -7.125000 0.000000 0.000000 98.117985 3.787218 23.488450 -19.566307 31.290700 -6.874135 0.488112 3.365744 -6.477497 7.125000 0.000000 0.000000 
10.610602 17.807230 1.814687 177.050790 1.893163 -156.359625 -11.887486 -26.077366 -65.801809 7.738537 22.605441 58.069660 0.322750 -5.005290 -18.819778 1.569300 -7.904600 -22.424800 32.806265 15.886525 -10.159013 0.571459 -5.082533 14.310871 -1.499084 0.381324 -22.781979 -2.761800 10.299100 -29.950700 0.585024 1.916608 -4.053274 -0.683813 0.046940 14.061634 10.911027 -5.692076 28.896176 1.975100 -2.009700 6.587600 -104.656556 -0.622350 13.871458 11.801260 -13.408737 -1.744316 -1.257047 1.046751 8.825192 -7.125000 0.000000 0.000000 98.282258 3.637891 23.378650 -19.575054 31.303051 -6.881611 0.578933 3.327726 -6.064271 7.125000 0.000000 0.000000 
10.597174 17.806793 1.721125 177.123070 2.008407 -156.147183 -12.230092 -25.908882 -65.230634 7.598873 22.506611 57.659893 0.413680 -5.026500 -19.726346 1.054400 -6.529100 -18.327500 32.855934 16.023064 -9.936674 0.590958 -5.015404 14.168449 -1.505175 0.143503 -22.829415 -2.873600 10.487600 -30.570500 0.542004 2.107833 -4.095987 -0.707762 0.357731 13.955573 10.865635 -5.765561 29.024814 1.949500 -2.048000 6.633400 -104.650010 -0.662358 13.373608 11.685350 -13.224262 -1.698495 -1.277867 1.135659 8.945586 -7.125000 0.000000 0.000000 98.411683 3.437085 23.118879 -19.540623 31.275901 -6.866430 0.519779 3.407115 -6.017306 7.125000 0.000000 0.000000 
10.583309 17.810505 1.625270 177.165968 2.041267 -155.939739 -12.585804 -25.786338 -64.837954 7.586274 22.490054 57.637176 0.501705 -4.976262 -20.434754 1.725400 -8.269100 -23.534300 32.874768 16.076007 -9.751736 0.590881 -4.991753 14.153556 -1.520005 0.135303 -22.912896 -2.875800 10.491200 -30.582300 0.532614 2.135050 -4.114476 -0.659674 0.357241 14.011123 10.777429 -5.954102 29.577396 1.943200 -2.147000 6.899300 -104.667688 -0.666215 13.121916 11.679919 -13.224533 -1.698143 -1.265315 1.174755 8.917456 -7.125000 0.000000 0.000000 98.369236 3.336812 23.100292 -19.413609 31.135776 -6.787161 0.445253 3.420906 -6.125262 7.125000 0.000000 0.000000 
